<svg width="370" height="68" xmlns="http://www.w3.org/2000/svg"><g fill="none" fill-rule="evenodd"><path d="M114 1.095h-.253c-.415 4.134-.995 8.592-1.693 13.241h-.717c-.569-.093-1.4-.093-2.16-.093-8.625 0-12.793 7.61-14.5 16.625l-2.845 17.097h-14.12c3.584-15.923 6.348-34.11 7.678-45.799h11.752c-.19 3.099-.474 6.067-.853 9.355h.379c3.222-6.2 8.34-10.428 14.69-10.428H114v.002zM64.068 38.64h-.188C59.52 46.41 53.548 49 48.145 49c-8.339 0-14.026-6.521-14.026-16.302C34.119 16.876 44.544 0 67.289 0c5.592 0 11.467.921 15.26 2.166 0 0-6.547 24.27-6.54 45.799h-12.51c.096-2.684.38-5.967.569-9.324zm-.474-28.19c-8.815 0-15.259 10.931-15.259 19.657 0 4.603 1.8 7.767 5.592 7.767 4.075 0 9.287-4.699 11.373-16.204l1.895-10.837c-1.042-.19-2.18-.382-3.6-.382zM19.524 49C8.057 49 0 41.904 0 29.725 0 13.042 12.607.002 30.235.002c3.981 0 7.39.766 9.478 1.629L36.3 12.179c-1.612-.673-3.508-1.152-6.255-1.152-9.667 0-15.733 8.342-15.733 17.164 0 6.52 4.075 9.781 9.098 9.781 3.98 0 6.824-.96 9.193-1.919l.095 10.452C29.761 47.945 25.021 49 19.524 49z" fill="#090"/><path d="M153.816 34.17c-4.44 8.822-12.685 15.12-23.277 15.12-3.697 0-6.92-.946-8.53-1.892h-.284l-3.697 19.56L104 66.96c4.221-20.025 9.805-46.491 11.747-65.864h12.604l-.941 7.653h.19c3.791-5.008 9.288-7.747 14.88-7.747 9.752 0 14.682 7.568 14.963 16.741C162.25 8.29 171.91 1 186.97 1c5.592 0 11.468 1.04 15.26 2.267l-2.206 11.487c5.01-7.99 13.969-13.753 26.432-13.753 6.54 0 12.227 1.227 17.156 3.211l-1.696 9.207C246.484 6.218 254.167 1 264.182 1c8.021 0 14.088 3.877 15.684 10.374C282.49 4.963 289.716 1 299.154 1c5.402 0 9.666 1.133 11.846 2.362l-3.222 9.64a23.051 23.051 0 0 0-9.29-1.985c-3.6 0-5.97 1.511-5.97 4.063 0 1.89 1.896 3.497 5.591 5.198 5.12 2.55 10.427 6.33 10.427 12.756 0 10.585-9.003 16.35-21.326 16.256-5.456-.09-10.742-1.443-13.629-3.264-5.232 2.4-11.487 3.264-16.32 3.264-10.916 0-17.47-5.054-19.45-13.581l-1.213 6.586c-1.612 8.505-4.265 16.066-9.763 20.506-5.023 3.97-11.753 5.199-17.911 5.199-6.257 0-11.945-1.134-15.165-2.931l3.22-10.395c2.562 1.513 8.152 2.553 12.134 2.553 6.823 0 11.848-3.025 13.838-12.285l.757-3.97h-.189c-3.6 4.725-7.771 6.9-13.269 6.9-7.154 0-12.126-4.522-14.026-10.803-.409 4.017-.636 8.077-.534 11.18h-12.509c.095-2.646.38-5.859.568-9.167h-.189c-4.36 7.656-10.332 10.208-15.734 10.208-8.066 0-13.649-6.009-14.01-15.12zm119.747 1.605 1.034-.567 1.808.945c2.653 1.323 7.678 3.214 12.133 3.214 3.791 0 5.781-1.891 5.781-4.159 0-2.267-1.516-3.874-5.781-5.953-4.232-2.11-7.912-5.003-9.234-9.008-3.141 7.67-13.65 10.534-29.057 10.142 0 1.324.476 3.402 1.421 4.725 1.801 2.364 4.93 3.591 8.91 3.591 5.024 0 9.289-1.132 12.985-2.93zm-11.09-24.854c-6.348 0-9.951 5.294-10.898 9.545 10.613.096 15.923-1.322 15.923-5.575v-.095c0-2.269-1.896-3.875-5.024-3.875zm-33.646 1.323c-1.043-.473-3.031-.85-4.929-.85-8.245 0-14.122 9.167-14.122 17.86 0 4.725 2.085 8.127 6.256 8.127 4.454 0 8.909-5.009 10.425-12.756l2.37-12.38zm-41.95-.566c-1.044-.189-2.181-.377-3.602-.377-8.815 0-15.26 10.772-15.26 19.372 0 4.535 1.802 7.654 5.592 7.654 4.076 0 9.288-4.631 11.373-15.97l1.897-10.68zm-62.975 25.136c1.517 1.324 3.507 2.175 6.254 2.175 7.299 0 12.986-10.301 12.986-19.371 0-3.687-1.611-7.56-5.97-7.56-5.119 0-9.858 5.67-11.564 14.74l-1.706 10.016z" fill="#333"/><path d="M311.759 48.999V49h-.067c-2.216 0-3.692-1.748-3.692-3.966 0-2.486 1.745-4.501 4.228-4.501 2.282 0 3.76 1.745 3.76 4.03 0 2.485-1.748 4.436-4.23 4.436zm25.902-6.385.537 4.37c-1.68.873-5.034 2.015-9.397 2.015-8.39 0-12.482-5.645-12.482-12.564 0-11.155 8.188-21.434 19.865-21.434 3.02 0 5.77.873 6.778 1.477l-1.61 4.366c-1.276-.604-3.087-1.208-5.502-1.208-8.456 0-13.758 8.33-13.758 16.058 0 5.307 2.752 8.735 8.052 8.735 3.355 0 5.838-1.007 7.517-1.815zm27.71 5.644h-5.168c0-1.948.335-5.04.737-8.399h-.134c-3.557 6.786-8.053 9.139-12.617 9.139-5.77 0-9.326-4.57-9.326-10.752 0-11.355 8.32-23.246 22.413-23.246 3.089 0 6.51.537 8.724 1.21l-3.288 16.997c-1.073 5.644-1.476 11.423-1.342 15.051zm-3.49-18.544 1.88-9.809c-.81-.268-1.948-.468-3.826-.468-8.39 0-15.302 8.733-15.302 17.802 0 3.63 1.274 7.19 5.502 7.19 4.7 0 10.201-6.047 11.745-14.715z" fill="#090"/></g></svg>