<svg width="308" height="90" xmlns="http://www.w3.org/2000/svg"><g fill="none" fill-rule="evenodd"><path d="M94.895.914h-.21c-.346 3.45-.829 7.171-1.41 11.052h-.597c-.473-.078-1.165-.078-1.797-.078-7.18 0-10.65 6.351-12.07 13.876l-2.369 14.27H64.69c2.983-13.29 5.284-28.47 6.39-38.226h9.783a143.841 143.841 0 0 1-.71 7.808h.316c2.68-5.174 6.94-8.704 12.226-8.704h2.2v.002zM53.331 32.252h-.157c-3.629 6.483-8.6 8.645-13.097 8.645-6.942 0-11.676-5.443-11.676-13.606C28.401 14.085 37.079 0 56.013 0c4.654 0 9.545.769 12.701 1.808 0 0-5.449 20.256-5.443 38.225H52.858c.08-2.24.316-4.98.473-7.781zm-.394-23.529c-7.338 0-12.702 9.124-12.702 16.406 0 3.842 1.498 6.483 4.655 6.483 3.391 0 7.73-3.922 9.467-13.525l1.577-9.044c-.868-.159-1.815-.32-2.997-.32zM16.252 40.898C6.707 40.898 0 34.975 0 24.81 0 10.885 10.494.002 25.168.002c3.314 0 6.152.64 7.89 1.36l-2.84 8.803c-1.342-.561-2.92-.962-5.208-.962-8.047 0-13.096 6.963-13.096 14.326 0 5.442 3.392 8.164 7.574 8.164 3.313 0 5.68-.8 7.652-1.602l.08 8.724c-2.447 1.201-6.392 2.083-10.968 2.083z" fill="#090"/><path d="M128.039 28.52c-3.697 7.363-10.56 12.62-19.377 12.62-3.077 0-5.76-.79-7.1-1.58h-.236l-3.078 16.326-11.677.001c3.514-16.714 8.161-38.804 9.778-54.973h10.492l-.784 6.388h.159c3.155-4.18 7.731-6.467 12.387-6.467 8.117 0 12.22 6.317 12.454 13.973C135.06 6.92 143.1.835 155.637.835c4.655 0 9.546.867 12.703 1.891l-1.837 9.588C170.673 5.645 178.131.835 188.505.835c5.444 0 10.179 1.025 14.281 2.68l-1.411 7.685C205.176 5.19 211.572.835 219.908.835c6.677 0 11.727 3.235 13.056 8.658 2.185-5.351 8.2-8.658 16.055-8.658 4.497 0 8.046.946 9.861 1.971l-2.682 8.045a19.145 19.145 0 0 0-7.732-1.656c-2.997 0-4.97 1.262-4.97 3.392 0 1.577 1.578 2.918 4.654 4.338 4.262 2.129 8.679 5.284 8.679 10.647 0 8.834-7.494 13.646-17.752 13.567-4.542-.074-8.942-1.204-11.345-2.723-4.355 2.003-9.561 2.723-13.585 2.723-9.087 0-14.541-4.218-16.19-11.335l-1.01 5.498c-1.342 7.098-3.55 13.409-8.127 17.115-4.18 3.313-9.783 4.339-14.91 4.339-5.208 0-9.943-.947-12.623-2.447l2.681-8.676c2.132 1.263 6.786 2.13 10.1 2.13 5.68 0 9.862-2.524 11.519-10.252l.63-3.314h-.157c-2.998 3.944-6.47 5.76-11.045 5.76-5.956 0-10.095-3.775-11.676-9.017-.34 3.352-.53 6.741-.444 9.33h-10.413c.08-2.207.316-4.89.473-7.65h-.157c-3.63 6.39-8.6 8.52-13.098 8.52-6.714 0-11.361-5.016-11.661-12.62zm99.678 1.34.86-.474 1.506.789c2.209 1.104 6.391 2.683 10.1 2.683 3.155 0 4.812-1.579 4.812-3.472 0-1.892-1.262-3.234-4.813-4.969-3.522-1.76-6.585-4.175-7.686-7.518-2.615 6.402-11.363 8.792-24.187 8.465 0 1.105.396 2.84 1.183 3.943 1.499 1.974 4.103 2.998 7.417 2.998 4.182 0 7.731-.945 10.808-2.446zm-9.23-20.745c-5.286 0-8.285 4.418-9.073 7.966 8.835.081 13.254-1.103 13.254-4.652v-.08c0-1.893-1.577-3.234-4.182-3.234zm-28.008 1.104c-.87-.394-2.524-.71-4.103-.71-6.864 0-11.756 7.652-11.756 14.908 0 3.944 1.736 6.783 5.207 6.783 3.709 0 7.417-4.18 8.678-10.647l1.974-10.334zm-34.92-.472c-.87-.158-1.816-.314-2.999-.314-7.338 0-12.703 8.99-12.703 16.168 0 3.785 1.5 6.388 4.656 6.388 3.392 0 7.73-3.865 9.467-13.329l1.579-8.913zm-52.422 20.98c1.263 1.105 2.92 1.815 5.207 1.815 6.075 0 10.81-8.598 10.81-16.168 0-3.077-1.342-6.31-4.97-6.31-4.261 0-8.207 4.732-9.627 12.303l-1.42 8.36z" fill="#333"/><path d="M259.512 40.897h-.056c-1.845 0-3.073-1.459-3.073-3.31 0-2.074 1.453-3.757 3.519-3.757 1.9 0 3.13 1.457 3.13 3.363 0 2.075-1.455 3.704-3.52 3.704zm21.56-5.33.448 3.647c-1.399.73-4.19 1.683-7.822 1.683-6.983 0-10.39-4.712-10.39-10.487 0-9.31 6.816-17.89 16.536-17.89 2.513 0 4.803.73 5.641 1.233l-1.339 3.645c-1.063-.505-2.57-1.009-4.58-1.009-7.039 0-11.453 6.953-11.453 13.403 0 4.43 2.29 7.29 6.703 7.29 2.792 0 4.86-.84 6.257-1.514zm23.067 4.711h-4.302c0-1.626.28-4.206.613-7.01h-.11c-2.962 5.664-6.704 7.628-10.503 7.628-4.804 0-7.764-3.815-7.764-8.974 0-9.477 6.926-19.402 18.658-19.402 2.57 0 5.42.448 7.261 1.009l-2.736 14.187c-.894 4.71-1.23 9.534-1.117 12.562zm-2.905-15.477 1.564-8.187c-.673-.224-1.62-.391-3.184-.391-6.983 0-12.738 7.289-12.738 14.859 0 3.029 1.061 6 4.58 6 3.912 0 8.492-5.047 9.778-12.281z" fill="#090"/><text font-family="ProximaNovaCond-MediumIt, Proxima Nova Condensed" font-size="24" font-style="italic" font-weight="500" fill="#4A4A4A">
            <tspan x="39.084" y="85">Car shopping made easy!</tspan>
        </text></g></svg>