<svg xmlns="http://www.w3.org/2000/svg" width="300" height="115"><path fill="#262728" fill-rule="evenodd" d="M104.028 46h-.13l-11 2a2 2 0 0 0-1.87 2l-1 9.83-1 5.84a2 2 0 0 0 .18 1.22l1 2a2 2 0 0 0 1.45 1.11l11.91 2.8a1 1 0 0 0 .65.24h1.27a10 10 0 0 0 19.08 0h1.27a1 1 0 0 0 .19-.04h50.5a10 10 0 0 0 19.08 0h1.27a1 1 0 0 0 .19 0h8a2 2 0 0 0 1.41-.59l3-3a2 2 0 0 0 .55-1.41l1-6a2 2 0 0 0-.06-.49l-1-4a2 2 0 0 0-.28-.62l-2-3a2 2 0 0 0-.77-.68l-4-2a2 2 0 0 0-.66-.2l-30.67-4-5.7-2.74h-.12.06l-15.33-8.15a1 1 0 0 0-.47-.12h-2a1 1 0 0 0-.51 1.86l10.3 6.14a1 1 0 0 0-.79 1v1h-23a1 1 0 0 0-.28-.71 2.48 2.48 0 0 1-.72-1.29 3 3 0 0 0-6 0v2h-23zm46-9 14 7.4a2 2 0 0 0-.35.26l-1.12 1-1.53-.84-.13-.26a1 1 0 0 0-.87-.56h-.33l-11.67-7h2zm8 8h2l.5 1 .5 1v2h-3v-4zm-43 33a8 8 0 1 1 0-16 8 8 0 0 1 0 16zm9.8-6a10 10 0 1 0-19.6 0h-1a11 11 0 1 1 21.62 0h-1.02zm61.2 6a8 8 0 1 1 0-16 8 8 0 0 1 0 16zm9.8-6a10 10 0 1 0-19.6 0h-1a11 11 0 1 1 21.62 0h-1.02zm-68.8-1v-1c0-6.627-5.373-12-12-12-6.628 0-12 5.373-12 12v.63l-11-2.63-1-2 1-6 1-10 11-2h53v1a1 1 0 0 0 1 1h3a1 1 0 0 0 1-1v-1h1l2.06-1.85 5.94 2.85 31 4 4 2 2 3 1 4-1 6-3 3h-7v-1c0-6.627-5.373-12-12-12-6.628 0-12 5.373-12 12v1h-47z"/></svg>