<svg xmlns="http://www.w3.org/2000/svg" width="300" height="115"><path fill="#262728" fill-rule="evenodd" d="M209.968 62.51v-4a2 2 0 0 0-.28-.62l-4-4a2 2 0 0 0-.77-.68l-7-2a2 2 0 0 0-.66-.2l-23.67-3-23.69-11.81a2 2 0 0 0-.87-.2h-20.77a16.73 16.73 0 0 0-4 .49l-1.33.44-1.11.46-14.5 7.7a20.81 20.81 0 0 1-4.18 1.55L92.698 50a2 2 0 0 0-1.67 2l-1 7.83-1 5.84a2 2 0 0 0 .18 1.22l1 2a2 2 0 0 0 1.45 1.11l12.91 1.8a1 1 0 0 0 .65.24h1.27a10 10 0 0 0 19.08 0h1.27a1 1 0 0 0 .31-.05V72h47.34a10 10 0 0 0 19.08 0h6.46a2 2 0 0 0 1.41-.59l8-2a2 2 0 0 0 .59-1.41v-5a2 2 0 0 0-.06-.49zM116.028 77a8 8 0 1 1 0-16 8 8 0 0 1 0 16zm10.81-6h-1a10 10 0 1 0-19.6 0h-1a11 11 0 1 1 21.6 0zm57.19 6a8 8 0 1 1 0-16 8 8 0 0 1 0 16zm9.8-6a10 10 0 1 0-19.6 0h-1a11 11 0 1 1 21.62 0h-1.02zm-44.8-33 24 12 24 3 7 2 4 4v9l-8 2h-4v-1c0-6.627-5.373-12-12-12-6.628 0-12 5.373-12 12v1h-44v-1c0-6.627-5.373-12-12-12-6.628 0-12 5.373-12 12v.63l-12-1.63-1-2 1-6 1-8 10.78-3.45a20.81 20.81 0 0 0 4.22-1.55l14.52-7.76a7.58 7.58 0 0 1 1-.41l1.32-.44a15 15 0 0 1 3.39-.39h20.77zm-18 11v-8h17l10 5.13V49h-27zm31 1h-3v-3.6c.05-.14.12-.27.18-.4h1.82l1 2v2zm-34-1h-14v-1l10.67-6 3.33-1v8z"/></svg>