<svg xmlns="http://www.w3.org/2000/svg" width="300" height="115"><path fill="#262728" fill-rule="evenodd" d="m206.968 61.51-1-4a2 2 0 0 0-.28-.62l-2-3a2 2 0 0 0-.77-.68l-4-2a2 2 0 0 0-.66-.2l-21.67-4-24.69-11.81a2 2 0 0 0-.87-.2h-33.64a16.22 16.22 0 0 0-7.26 1.71l-2.17 1.29-10.93 7.86a7.05 7.05 0 0 0-3 5.74v8.23l-1 5.84a2 2 0 0 0 .18 1.22l1 2a2 2 0 0 0 1 .94l6.1 2.61a1 1 0 0 0 .88.55h1.27a10 10 0 0 0 19.08 0h49.95a10 10 0 0 0 19.08 0h10.46a2 2 0 0 0 1.41-.59l3-3a2 2 0 0 0 .59-1.4v-6a2 2 0 0 0-.06-.49zM113.028 78a8 8 0 1 1 0-16 8 8 0 0 1 0 16zm9.8-6a10 10 0 1 0-19.6 0h-1a11 11 0 1 1 21.62 0h-1.02zm59.2 6a8 8 0 1 1 0-16 8 8 0 0 1 0 16zm9.8-6a10 10 0 1 0-19.6 0h-1a11 11 0 1 1 21.62 0h-1.02zm-66.8-1v-1c0-6.627-5.373-12-12-12-6.628 0-12 5.373-12 12v.15l-5-2.15-1-2 1-6v-8.4a5.05 5.05 0 0 1 2.12-4.11l11-7.84a14.22 14.22 0 0 1 1.88-1.15 14.22 14.22 0 0 1 6.36-1.5h33.64l25 12 22 4 4 2 2 3 1 4v6l-3 3h-8v-1c0-6.627-5.373-12-12-12-6.628 0-12 5.373-12 12v1h-45zm8-23v-8h17l11 5.13V48h-28zm32 1h-3v-4h2l1 2v2zm-36-1h-24l12-8h12v8z"/></svg>