<svg width="300" height="115" xmlns="http://www.w3.org/2000/svg"><g fill="#262728" fill-rule="evenodd"><path d="m154.358 73.04 1.128-2.04h24.542v-1c0-6.627 5.372-12 12-12 6.627 0 12 5.373 12 12v1h6l3-3v-7l-1-4-2-3-4-2-25-3-24.289-11.659v-2.21a2 2 0 0 1 .159.069l24.69 11.81 24.67 3a2 2 0 0 1 .66.2l4 2a2 2 0 0 1 .77.68l2 3a2 2 0 0 1 .28.62l1 4 .06.49v7a2 2 0 0 1-.56 1.45l-3 3a2 2 0 0 1-1.41.59h-7a1 1 0 0 1-.22 0h-1.27a10 10 0 0 1-19.08 0h-28.13zm-10.842 0h-19.948a10 10 0 0 1-19.08 0h-1.27a1 1 0 0 1-.65-.24L87.658 71a2 2 0 0 1-1.45-1.11l-1-2a2 2 0 0 1-.18-1.22l1-5.84V50a2 2 0 0 1 1.87-2l15.53-2.85a6 6 0 0 0 2-.59l17.71-9.35a2 2 0 0 1 .89-.21h23.447l-1.106 2h-22.341l-18 9.53a6 6 0 0 1-2 .59l-16 2.88v11l-1 6 1 2 14 1.63V70c0-6.627 5.372-12 12-12 6.627 0 12 5.373 12 12v1h17.488v2.04zM114.028 78a8 8 0 1 0 0-16 8 8 0 0 0 0 16zm9.8-6h1.02a11 11 0 1 0-21.62 0h1a10 10 0 1 1 19.6 0zm68.2 6a8 8 0 1 0 0-16 8 8 0 0 0 0 16zm10.81-6a11 11 0 1 0-21.6 0h1a10 10 0 1 1 19.6 0h1z"/><path d="M141.028 46.656V40h3.682l-3.682 6.656zm15.711-5.858 9.289 4.332V48h-9.289v-7.202zM170.028 53h-3v-7.4c0-.2.1-.4.15-.6h1.85l1 4v4zm-32-5h-22.46v-2.59l9.46-5.41h13v8z"/><path d="M145.516 59.878v25.015l18.74-33.878h-9.517V26L136 59.878z"/></g></svg>