<svg xmlns="http://www.w3.org/2000/svg" width="300" height="115"><path fill="#262728" fill-rule="evenodd" d="m216.41 64.59-.53-.53-.88-6.34a2 2 0 0 0-.57-1.13l-1-1a2 2 0 0 0-.52-.37l-4-2-.19-.08-15.9-6-3.72-1.86-13.86-10.85a2 2 0 0 0-.34-.22l-2-1a2 2 0 0 0-.41-.15l-4-1A2 2 0 0 0 168 32H97a2 2 0 0 0-.89.21l-2 1a2 2 0 0 0-.52.37l-1 1a2 2 0 0 0-.42.61l-7 16a2 2 0 0 0-.11.32l-1 4A2 2 0 0 0 84 56v7.17l-.41.41A2 2 0 0 0 83 65v7a2 2 0 0 0 .59 1.41l1 1A2 2 0 0 0 86 75h14.86a1 1 0 0 0 .14 0h1.2a10 10 0 0 0 19.6 0h1.2a1 1 0 0 0 .16 0h57.66a1 1 0 0 0 .18 0h1.2a10 10 0 0 0 19.6 0h1.2a1 1 0 0 0 .32-.06V75H212a2 2 0 0 0 .63-.1l3-1A2 2 0 0 0 217 72v-6a2 2 0 0 0-.59-1.41zM112 81a8 8 0 1 1 0-16 8 8 0 0 1 0 16zm11-7h-1c0-.33.05-.66.05-1 0-5.523-4.477-10-10-10s-10 4.477-10 10c0 .34 0 .67.05 1H101v-1c0-6.075 4.925-11 11-11s11 4.925 11 11v1zm32-40h13l4 1 2 1 14 11 4 2 16 6 4 2 1 1 1 7 1 1v6l-3 1h-8c0-6.627-5.373-12-12-12s-12 5.373-12 12h-56c0-6.627-5.373-12-12-12s-12 5.373-12 12H86l-1-1v-7l1-1v-8l1-4 7-16 1-1 2-1h58zm37 47a8 8 0 1 1 0-16 8 8 0 0 1 0 16zm11-7h-1c0-.33.05-.66.05-1 0-5.523-4.477-10-10-10s-10 4.477-10 10c0 .34 0 .67.05 1H181v-1c0-6.075 4.925-11 11-11s11 4.925 11 11v1zm-50-24h-28l-1-13h29v13zM98 37h22l1 13H92.58L98 37zm59 13V37h12l3 1 8.8 7a1 1 0 0 0-.8 1v4h-23zm27 0h-3v-4h2l1 2v2z"/></svg>