<svg xmlns="http://www.w3.org/2000/svg" width="300" height="115"><path fill="#262728" fill-rule="evenodd" d="M220 65v5a2 2 0 0 1-1.11 1.79l-2 1a2 2 0 0 1-.89.21h-4a2 2 0 0 1-1.77-1.08l-2 .08-1.26.11a12 12 0 0 1-23.53 2 9.28 9.28 0 0 1-.57-1.07H182a2 2 0 0 1-.63-.1l-2.69-.94h-55.14a9.53 9.53 0 0 1-1 2.09A12 12 0 0 1 99 71c0-.34 0-.67.05-1H99a2 2 0 0 1-.63-.1l-2.69-.9h-5A2 2 0 0 1 89 70h-5a2 2 0 0 1-.89-.21l-2-1A2 2 0 0 1 80 67v-5a2 2 0 0 1 2-2h1V48a2 2 0 0 1 .59-1.41l1-1A2 2 0 0 1 86 45h39v-1a2 2 0 0 1 0-.43l1.55-6v-.13c.81-3.67 2.86-4.44 4.45-4.44h36a2 2 0 0 1 1.27.46l16.51 10.6 27.37 2a2 2 0 0 1 .76.22l2 1a2 2 0 0 1 .87.88l1 2a2 2 0 0 1 .22.84v12.26l.11-.05A2 2 0 0 1 220 65zM89 63h-4l-2-1h-1v5l2 1h5v-5zm10 5h.39a12 12 0 0 1 23.55 2h1a13 13 0 0 0-25.54-2.2l.6.2zm20.58 8.11A10 10 0 1 0 101.2 69a10 10 0 0 0 18.38 7.11zM210.21 70v-4.71C210.25 64 211.67 64 212 64h3V51l-1-2-2-1-28-2-17-11h-36c-2 0-2.31 2.4-2.45 3-1.55 7-1.55 6-1.55 6v3H86l-1 1v12.76l.47.24H89a2 2 0 0 1 2 2v4h5l1.46.49a14 14 0 0 1 27.48 2.44v.08H179l2 .67c.174-7.607 6.391-13.682 14-13.68 6.58 0 13.33 4 13.33 13h1.88zm-3 0c0-8.21-6.82-12-12.25-12-7.18 0-13 5.82-13 13h1c0-6.627 5.373-12 12-12a12.3 12.3 0 0 1 12 11h.29-.04zM205 71a10 10 0 1 0-19.72 2.31A10 10 0 0 0 205 71zm13-6-1 .5-1 .5h-4v5h4l2-1v-5zm-86.33-28-1.57 8v2H150V37h-18.33zM176 47v-2c0-.27-.17-.74 1-.92L165.63 37H153v10h23zm4 0-1-2h-2v4h3v-2z"/></svg>