<svg xmlns="http://www.w3.org/2000/svg" width="300" height="115"><path fill="#262728" fill-rule="evenodd" d="m214.968 60.51-1-4a2 2 0 0 0-.28-.62l-2-3a2 2 0 0 0-.77-.68l-4-2a2 2 0 0 0-.66-.2l-24.67-3-24.69-11.81a2 2 0 0 0-.87-.2h-32a2 2 0 0 0-.89.21l-17.71 9.35a6 6 0 0 1-2 .59L87.898 48a2 2 0 0 0-1.87 2v10.83l-1 5.84a2 2 0 0 0 .18 1.22l1 2a2 2 0 0 0 1.45 1.11l14.91 1.8a1 1 0 0 0 .65.24h1.27a10 10 0 0 0 19.08 0h58.92a10 10 0 0 0 19.08 0h1.27a1 1 0 0 0 .22 0h7a2 2 0 0 0 1.41-.59l3-3a2 2 0 0 0 .56-1.45v-7l-.06-.49zM114.028 78a8 8 0 1 1 0-16 8 8 0 0 1 0 16zm9.8-6a10 10 0 1 0-19.6 0h-1a11 11 0 1 1 21.62 0h-1.02zm2.2-1v-1c0-6.627-5.373-12-12-12-6.628 0-12 5.373-12 12v.63l-14-1.63-1-2 1-6V50l16-2.88a6 6 0 0 0 2-.59l18-9.53h32l25 12 25 3 4 2 2 3 1 4v7l-3 3h-6v-1c0-6.627-5.373-12-12-12-6.628 0-12 5.373-12 12v1h-54zm66 7a8 8 0 1 1 0-16 8 8 0 0 1 0 16zm10.81-6h-1a10 10 0 1 0-19.6 0h-1a11 11 0 1 1 21.6 0zm-61.81-24v-8h14l11 5.13V48h-25zm29 1h-3v-3.7c0-.1.1-.2.15-.3h1.85l1 2v2zm-32-1h-22.46v-2.59l9.46-5.41h13v8z"/></svg>