<svg xmlns="http://www.w3.org/2000/svg" width="300" height="115"><path fill="#262728" fill-rule="evenodd" d="m218.41 61.59-.53-.53-.88-6.34a2 2 0 0 0-.57-1.13l-4-4a2 2 0 0 0-1-.55l-5-1h-.23l-24.61-2-1.59-.77-18.87-12.92A2 2 0 0 0 160 32H93a6.21 6.21 0 0 0-5.85 4.4l-4.06 13a2 2 0 0 0-.09.6v11.17l-1.41 1.42A2 2 0 0 0 81 64v7a2 2 0 0 0 1.75 2l16 2h.41v.15a1 1 0 0 0 1 .85h2.26a11 11 0 0 0 21.15 0h2.26a1 1 0 0 0 1-.85V75h55.33v.15a1 1 0 0 0 1 .85h2.26a11 11 0 0 0 21.15 0h2.26a1 1 0 0 0 1-.85V75H215a2 2 0 0 0 1.79-1.11l2-4A2 2 0 0 0 219 69v-6a2 2 0 0 0-.59-1.41zM127 73c0-7.732-6.268-14-14-14s-14 6.268-14 14l-16-2v-7l2-2V50l4.06-13A4.34 4.34 0 0 1 93 34h67l19 13 2 1 25 2 5 1 4 4 .55 3.82L216 62l1 1v6l-2 4h-5c0-7.732-6.268-14-14-14s-14 6.268-14 14h-55zm-14 9a9 9 0 1 1 0-18 9 9 0 0 1 0 18zm12.83-7h-2a11 11 0 1 0-21.62 0h-2a13 13 0 1 1 25.62 0zM196 82a9 9 0 1 1 0-18 9 9 0 0 1 0 18zm12.83-7h-2a11 11 0 1 0-21.62 0h-2a13 13 0 1 1 25.62 0zM142 49l-25-1V37h25v12zM93 37h21v11H89.33L93 37zm52 12V37h14l11.46 8.18a1 1 0 0 0-.46.82v3h-25zm29 1h-3v-4h2l1 2v2z"/></svg>