<svg width="20" height="20" viewBox="0 0 16 13" fill="none" xmlns="http://www.w3.org/2000/svg">
<path d="M16 1.53899C15.4009 1.80434 14.7655 1.97843 14.1148 2.05545C14.8001 1.64544 15.313 1.00026 15.5578 0.240158C14.9136 0.622527 14.2087 0.89178 13.4736 1.03625C13.1664 0.708716 12.7953 0.44774 12.3831 0.269491C11.971 0.0912415 11.5266 -0.000482829 11.0776 1.9113e-06C9.26488 1.9113e-06 7.79502 1.46919 7.79502 3.28199C7.79502 3.53898 7.82411 3.78973 7.88021 4.03009C5.15201 3.89319 2.7334 2.58646 1.11435 0.600599C0.822424 1.10149 0.669029 1.67101 0.669896 2.25074C0.669466 2.79109 0.802541 3.32318 1.0573 3.79973C1.31206 4.27629 1.68061 4.68254 2.1302 4.9824C1.60902 4.96585 1.09932 4.82511 0.643507 4.5719C0.643092 4.58561 0.643092 4.59911 0.643092 4.61324C0.643092 6.20292 1.77448 7.52939 3.27592 7.83124C2.79246 7.9621 2.28556 7.98128 1.79359 7.88733C2.21124 9.19095 3.42345 10.1401 4.85986 10.1667C3.69709 11.0791 2.26121 11.5739 0.783138 11.5717C0.518214 11.5717 0.257029 11.5564 0 11.5258C1.50089 12.49 3.2477 13.0018 5.0317 13C11.0695 13 14.3712 7.99931 14.3712 3.66279C14.3712 3.52069 14.3679 3.3788 14.3616 3.23774C15.0046 2.77361 15.5595 2.19832 16 1.53899Z" 
fill="#1da1f2"/>
</svg>
