<svg width="20" height="20" viewBox="0 0 16 16" fill="none" xmlns="http://www.w3.org/2000/svg">
<path d="M7.9996 0C3.581 0 0 3.5818 0 7.9996C0 11.3884 2.1084 14.2856 5.08483 15.4515C5.01436 14.8189 4.9519 13.8451 5.11206 13.1549C5.25779 12.5303 6.05055 9.17832 6.05055 9.17832C6.05055 9.17832 5.81112 8.69866 5.81112 7.98999C5.81112 6.87853 6.45573 6.04814 7.2589 6.04814C7.94194 6.04814 8.27106 6.56063 8.27106 7.17481C8.27106 7.86187 7.83384 8.88764 7.60883 9.83894C7.42065 10.6349 8.00841 11.2843 8.79315 11.2843C10.2145 11.2843 11.3083 9.78529 11.3083 7.62084C11.3083 5.70542 9.93184 4.36655 7.96677 4.36655C5.69021 4.36655 4.35374 6.07377 4.35374 7.83784C4.35374 8.5249 4.61879 9.2624 4.9495 9.66358C4.9776 9.69379 4.99745 9.73074 5.00713 9.77085C5.01681 9.81096 5.01599 9.85289 5.00475 9.8926C4.9439 10.1448 4.80857 10.6886 4.78294 10.7999C4.74771 10.9464 4.66683 10.9776 4.51469 10.9072C3.51614 10.4419 2.89155 8.98133 2.89155 7.80742C2.89155 5.28422 4.72449 2.96682 8.17737 2.96682C10.9528 2.96682 13.1093 4.9439 13.1093 7.58721C13.1093 10.345 11.3708 12.5623 8.95811 12.5623C8.14694 12.5623 7.38542 12.1419 7.12437 11.6447L6.62549 13.5457C6.44532 14.2407 5.95766 15.112 5.63175 15.6437C6.39897 15.8805 7.19745 16.0006 8.0004 16C12.4182 16 16 12.4182 16 8.0004C16 3.5826 12.4174 0 7.9996 0Z" 
fill="#bd081c"/>
</svg>
