<svg width="18" height="18" viewBox="0 0 14 14" fill="none" xmlns="http://www.w3.org/2000/svg">
<path d="M13.2242 0H0.775833C0.570541 0.0015264 0.374091 0.0837558 0.228923 0.228923C0.0837558 0.374091 0.0015264 0.570541 0 0.775833V13.2242C0.0015264 13.4295 0.0837558 13.6259 0.228923 13.7711C0.374091 13.9162 0.570541 13.9985 0.775833 14H7.47833V8.58667H5.65833V6.46917H7.47833V4.91167C7.47833 3.10333 8.58083 2.1175 10.2025 2.1175C10.745 2.1175 11.2875 2.1175 11.83 2.19917V4.08333H10.7158C9.835 4.08333 9.66583 4.50333 9.66583 5.11583V6.46333H11.7658L11.4917 8.58083H9.66583V14H13.2242C13.4295 13.9985 13.6259 13.9162 13.7711 13.7711C13.9162 13.6259 13.9985 13.4295 14 13.2242V0.775833C13.9985 0.570541 13.9162 0.374091 13.7711 0.228923C13.6259 0.0837558 13.4295 0.0015264 13.2242 0Z"
fill="#3b5998"/>
</svg>
