<svg xmlns="http://www.w3.org/2000/svg" width="300" height="115"><path fill="#262728" fill-rule="evenodd" d="m216.968 61.51-1-4a2 2 0 0 0-.28-.62l-2-3a2 2 0 0 0-.77-.68l-4-2a2 2 0 0 0-.66-.2l-24.67-3-24.69-12.81a2 2 0 0 0-.87-.2h-58a2 2 0 0 0-.89.21l-4 2a2 2 0 0 0-.45.31l-11 11a2 2 0 0 0-.66 1.48v10.83l-1 5.84a2 2 0 0 0 .18 1.22l1 2a2 2 0 0 0 1.45 1.11l14.91 2.8a1 1 0 0 0 .65.24h1.27a10 10 0 0 0 19.08 0h63.92a10 10 0 0 0 19.08 0h8.46a2 2 0 0 0 1.41-.59l3-3a2 2 0 0 0 .59-1.45v-7a2 2 0 0 0-.06-.49zM111.028 79a8 8 0 1 1 0-16 8 8 0 0 1 0 16zm9.8-6a10 10 0 1 0-19.6 0h-1a11 11 0 1 1 21.62 0h-1.02zm73.2 6a8 8 0 1 1 0-16 8 8 0 0 1 0 16zm9.8-6a10 10 0 1 0-19.6 0h-1a11 11 0 1 1 21.62 0h-1.02zm-118.8-23 11-11 4-2h58l19.06 10.15 1.24.59 4.7 2.26 25 3 4 2 2 3 1 4v7l-3 3h-6v-1c0-6.627-5.373-12-12-12-6.628 0-12 5.373-12 12v1h-59v-1c0-6.627-5.373-12-12-12-6.628 0-12 5.373-12 12v.63l-14-2.63-1-2 1-6V50zm60 0V40h12l11 6.13V50h-23zm27 1h-3v-4h2l1 2v2zm-52-1V40h22v10h-22zm-3 0-26-1 9-9h17v10z"/></svg>